<svg version="1.1" id="Layer_1" xmlns="http://www.w3.org/2000/svg" xmlns:xlink="http://www.w3.org/1999/xlink" x="0px" y="0px"
	 viewBox="-20 -20 340 420" style="enable-background:new 0 0 299.33 384.51;" xml:space="preserve">
<style type="text/css">
	.st0{fill:#FFFFFF;stroke:#FFFFFF;stroke-width:8;stroke-miterlimit:10;}
	.st1{fill:#FFFFFF;}
</style>
<g class="robot levitate">
	<path class="st0" d="M296.08,164.83"/>
	<path class="st1" d="M181.06,144.34h-66.63c-2.17,0-3.93-1.76-3.93-3.93v-3.26c0-2.17,1.76-3.93,3.93-3.93h66.63
		c2.17,0,3.93,1.76,3.93,3.93v3.26C184.99,142.58,183.23,144.34,181.06,144.34z"/>
	<g>
		<g>
			<path class="st1" d="M125.28,345.92H112.7c-3.58,0-6.49-2.91-6.49-6.49v-45.4c0-3.58,2.91-6.49,6.49-6.49h12.58
				c3.58,0,6.49,2.9,6.49,6.49v45.4C131.76,343.02,128.86,345.92,125.28,345.92z"/>
			<path class="st1" d="M104.66,374.16l7.53,7.53c3.76,3.76,9.85,3.76,13.61,0l7.53-7.53c3.76-3.76,3.76-9.85,0-13.61l-7.53-7.53
				c-3.76-3.76-9.85-3.76-13.61,0l-7.53,7.53C100.9,364.31,100.9,370.4,104.66,374.16z"/>
		</g>
		<g>
			<path class="st1" d="M182.79,345.92h-12.58c-3.58,0-6.49-2.91-6.49-6.49v-45.4c0-3.58,2.91-6.49,6.49-6.49h12.58
				c3.58,0,6.49,2.9,6.49,6.49v45.4C189.28,343.02,186.38,345.92,182.79,345.92z"/>
			<path class="st1" d="M162.17,372.87l7.53,7.53c3.76,3.76,9.85,3.76,13.61,0l7.53-7.53c3.76-3.76,3.76-9.85,0-13.61l-7.53-7.53
				c-3.76-3.76-9.85-3.76-13.61,0l-7.53,7.53C158.41,363.01,158.41,369.11,162.17,372.87z"/>
		</g>
	</g>
	<path class="st1" d="M279.91,269.08l-7.44,3.22c-4.82,2.08-10.41-0.13-12.49-4.94l-30.99-71.57c-2.08-4.82,0.13-10.41,4.94-12.49
		l7.44-3.22c4.82-2.08,10.41,0.13,12.49,4.94l30.99,71.57C286.94,261.4,284.73,266.99,279.91,269.08z"/>
	<path class="st1" d="M28.16,273.89l-7.63-2.73c-4.94-1.77-7.51-7.21-5.75-12.15l26.27-73.43c1.77-4.94,7.21-7.51,12.15-5.75
		l7.63,2.73c4.94,1.77,7.51,7.21,5.75,12.15l-26.27,73.43C38.54,273.09,33.1,275.66,28.16,273.89z"/>
	<g>
		<g>
			<path class="st1" d="M275.86,260.76L275.86,260.76c-1.64,2.4-1.02,5.67,1.37,7.31l13.87,9.48c2.4,1.64,5.67,1.02,7.31-1.37l0,0
				c1.64-2.4,1.02-5.67-1.37-7.31l-13.87-9.48C280.77,257.75,277.5,258.37,275.86,260.76z"/>
			<path class="st1" d="M271.18,262.79L271.18,262.79c-2.9,0-5.26,2.35-5.26,5.26v16.8c0,2.9,2.35,5.26,5.26,5.26l0,0
				c2.9,0,5.26-2.35,5.26-5.26v-16.8C276.44,265.14,274.09,262.79,271.18,262.79z"/>
		</g>
		<path class="st1" d="M275.86,260.76L275.86,260.76c-1.64,2.4-1.02,5.67,1.37,7.31l13.87,9.48c2.4,1.64,5.67,1.02,7.31-1.37l0,0
			c1.64-2.4,1.02-5.67-1.37-7.31l-13.87-9.48C280.77,257.75,277.5,258.37,275.86,260.76z"/>
	</g>
	<g>
		<path class="st1" d="M30.27,267.75L30.27,267.75c-2.59,1.31-3.63,4.47-2.32,7.06l7.58,14.99c1.31,2.59,4.47,3.63,7.06,2.32h0
			c2.59-1.31,3.63-4.47,2.32-7.06l-7.58-14.99C36.02,267.48,32.86,266.44,30.27,267.75z"/>
		<path class="st1" d="M25.19,267.26L25.19,267.26c-2.54-1.4-5.74-0.47-7.14,2.07l-8.1,14.71c-1.4,2.54-0.47,5.74,2.07,7.14h0
			c2.54,1.4,5.74,0.47,7.14-2.07l8.1-14.71C28.66,271.86,27.73,268.66,25.19,267.26z"/>
	</g>
	<path class="st1" d="M239.83,41.63H55.66c-9.44,0-17.1,7.66-17.1,17.1v51.95c0,9.44,7.66,17.1,17.1,17.1h184.16
		c9.44,0,17.1-7.66,17.1-17.1V58.73C256.92,49.28,249.27,41.63,239.83,41.63z M100.58,97.48c-7.06,0-12.78-5.72-12.78-12.78
		s5.72-12.78,12.78-12.78c7.06,0,12.78,5.72,12.78,12.78S107.63,97.48,100.58,97.48z M148.33,103.53c-10.4,0-18.83-8.43-18.83-18.83
		s8.43-18.83,18.83-18.83s18.83,8.43,18.83,18.83S158.73,103.53,148.33,103.53z M194.91,97.48c-7.06,0-12.78-5.72-12.78-12.78
		s5.72-12.78,12.78-12.78c7.06,0,12.78,5.72,12.78,12.78S201.97,97.48,194.91,97.48z"/>
	<ellipse transform="matrix(0.9419 -0.3358 0.3358 0.9419 -3.4205 34.4121)" class="st1" cx="97.8" cy="27.1" rx="8.14" ry="28.1"/>
	<ellipse transform="matrix(0.2773 -0.9608 0.9608 0.2773 116.834 209.5192)" class="st1" cx="197.69" cy="27.1" rx="28.1" ry="8.14"/>
	<path class="st1" d="M210.67,281.78H84.82c-7.28,0-13.19-5.9-13.19-13.19V163.57c0-7.28,5.9-13.19,13.19-13.19h125.85
		c7.28,0,13.19,5.9,13.19,13.19v105.02C223.86,275.87,217.95,281.78,210.67,281.78z M90.34,229.6h14.72c5.16,0,7.89-3.25,7.89-7.32
		c0-3.41-2.32-6.22-5.2-6.67c2.56-0.53,4.67-2.8,4.67-6.22c0-3.62-2.64-6.91-7.8-6.91H90.34V229.6z M96.12,213.38v-5.98h7.24
		c1.95,0,3.17,1.3,3.17,2.97c0,1.75-1.22,3.01-3.17,3.01H96.12z M96.12,224.68v-6.38h7.44c2.28,0,3.5,1.46,3.5,3.17
		c0,1.95-1.3,3.21-3.5,3.21H96.12z M119.33,218.79c0,6.67,3.86,11.3,12.15,11.3c8.21,0,12.07-4.59,12.07-11.34v-16.26h-5.85v16.1
		c0,3.78-2.07,6.38-6.22,6.38c-4.23,0-6.3-2.6-6.3-6.38v-16.1h-5.85V218.79z M149.66,216.06c0,8.54,6.5,14.06,14.43,14.06
		c4.92,0,8.78-2.03,11.54-5.12v-10.37H162.7v4.96h7.24v3.29c-1.18,1.06-3.37,2.07-5.85,2.07c-4.92,0-8.5-3.78-8.5-8.9
		c0-5.12,3.58-8.9,8.5-8.9c2.85,0,5.16,1.5,6.42,3.41l4.8-2.6c-2.07-3.21-5.61-5.93-11.22-5.93
		C156.16,202.04,149.66,207.48,149.66,216.06z M189.01,229.6h5.77v-11.1l10.37-16.02h-6.59l-6.67,10.89l-6.75-10.89h-6.58
		l10.45,16.02V229.6z"/>
</g>
</svg>
