<?xml version="1.0" encoding="utf-8"?>
<!-- Generator: Adobe Illustrator 23.0.2, SVG Export Plug-In . SVG Version: 6.00 Build 0)  -->
<svg version="1.1" id="Layer_1" xmlns="http://www.w3.org/2000/svg" xmlns:xlink="http://www.w3.org/1999/xlink" x="0px" y="0px"
	 viewBox="0 0 262.22 71.11" style="enable-background:new 0 0 262.22 71.11;" xml:space="preserve">
<style type="text/css">
	.st0{fill:#773F09;}
	.st1{fill:#EF7A21;}
	.st2{fill:#FFFFFF;}
	.st3{fill:none;}
</style>
<path class="st0" d="M257.8,71.57H5.14c-2.64,0-4.78-2.14-4.78-4.78V5.24c0-2.64,2.14-4.78,4.78-4.78H257.8
	c2.64,0,4.78,2.14,4.78,4.78v61.55C262.58,69.43,260.44,71.57,257.8,71.57z"/>
<path class="st1" d="M257.44,71.11H4.78C2.14,71.11,0,68.97,0,66.33V4.78C0,2.14,2.14,0,4.78,0h252.66c2.64,0,4.78,2.14,4.78,4.78
	v61.55C262.22,68.97,260.08,71.11,257.44,71.11z"/>
<path class="st0" d="M114.3,54.99c-10.65,0.02-19.3-8.66-19.18-19.37c0.11-10.45,8.62-18.98,19.22-18.94
	c10.53,0.04,19.06,8.59,19.09,19.09C133.44,46.43,124.82,54.99,114.3,54.99z M114.21,38.61c0.12,0.01,0.15,0.08,0.18,0.14
	c0.52,1.29,1.03,2.57,1.56,3.86c0.19,0.47,0.34,0.98,0.92,1.14c0.3,0.08,0.61,0.06,0.92,0.05c0.47-0.02,0.82-0.25,1-0.69
	c0.23-0.57,0.46-1.14,0.69-1.7c0.5-1.21,1-2.41,1.49-3.62c0.45-1.09,0.88-2.19,1.32-3.28c0.54-1.34,1.09-2.67,1.64-4.01
	c0.08-0.2,0.07-0.3-0.18-0.3c-0.48,0.01-0.96,0.01-1.44,0c-0.17,0-0.26,0.07-0.33,0.23c-0.36,0.93-0.74,1.86-1.11,2.78
	c-0.46,1.14-0.95,2.26-1.41,3.4c-0.61,1.51-1.21,3.04-1.82,4.55c-0.03,0.08-0.06,0.2-0.16,0.21c-0.11,0.01-0.12-0.11-0.15-0.2
	c-0.61-1.49-1.24-2.98-1.83-4.48c-0.11-0.28-0.31-0.55-0.16-0.91c0.51-1.21,1.01-2.43,1.49-3.66c0.43-1.09,0.21-2.07-0.56-2.93
	c-0.83-0.92-2.29-1.16-3.43-0.46c-1.02,0.63-1.59,1.89-1.26,2.99c0.37,1.24,0.93,2.41,1.42,3.61c0.2,0.48,0.34,0.92,0.01,1.4
	c-0.15,0.22-0.22,0.5-0.32,0.75c-0.51,1.24-1.01,2.48-1.52,3.72c-0.02,0.06-0.01,0.15-0.11,0.15c-0.08,0-0.11-0.07-0.14-0.14
	c-0.16-0.4-0.33-0.8-0.49-1.2c-0.8-1.96-1.6-3.91-2.4-5.86c-0.5-1.23-1.01-2.46-1.5-3.69c-0.08-0.21-0.2-0.28-0.41-0.27
	c-0.46,0.01-0.91,0.01-1.37,0c-0.21,0-0.26,0.04-0.17,0.25c0.39,0.95,0.75,1.9,1.14,2.85c0.55,1.36,1.12,2.7,1.68,4.06
	c0.74,1.82,1.49,3.63,2.2,5.46c0.38,0.97,1.02,1.12,2.05,0.91c0.32-0.07,0.55-0.27,0.67-0.57c0.32-0.75,0.63-1.51,0.94-2.26
	C113.59,40.13,113.9,39.36,114.21,38.61z"/>
<path class="st0" d="M114.26,30.2c0.63,0,1.1,0.58,0.9,1.18c-0.23,0.69-0.52,1.35-0.78,2.03c-0.02,0.05-0.07,0.11-0.11,0.12
	c-0.07,0.02-0.08-0.06-0.1-0.11c-0.27-0.71-0.62-1.39-0.82-2.12C113.2,30.77,113.69,30.2,114.26,30.2z"/>
<g>
	<path class="st0" d="M144.03,36.77c0-4.16,2.97-7.01,6.7-7.01c2.91,0,4.53,1.62,5.43,3.31l-2.33,1.22c-0.54-1.1-1.68-1.97-3.1-1.97
		c-2.22,0-3.9,1.89-3.9,4.45s1.68,4.45,3.9,4.45c1.42,0,2.56-0.85,3.1-1.97l2.33,1.2c-0.92,1.69-2.53,3.33-5.43,3.33
		C147,43.78,144.03,40.94,144.03,36.77z"/>
	<path class="st0" d="M157.48,38.62c0-2.78,1.84-5.14,4.88-5.14c3.06,0,4.9,2.36,4.9,5.14c0,2.8-1.84,5.16-4.9,5.16
		C159.31,43.78,157.48,41.43,157.48,38.62z M164.73,38.62c0-1.52-0.86-2.84-2.37-2.84S160,37.1,160,38.62
		c0,1.54,0.84,2.86,2.35,2.86S164.73,40.17,164.73,38.62z"/>
	<path class="st0" d="M175.71,42.28c-0.73,0.98-1.74,1.5-2.85,1.5c-2.33,0-4.09-1.87-4.09-5.14c0-3.21,1.74-5.16,4.09-5.16
		c1.09,0,2.12,0.51,2.85,1.5v-5h2.45v13.55h-2.45V42.28z M175.71,36.9c-0.4-0.65-1.28-1.12-2.11-1.12c-1.38,0-2.33,1.16-2.33,2.86
		c0,1.69,0.96,2.84,2.33,2.84c0.82,0,1.7-0.47,2.11-1.12V36.9z"/>
	<path class="st0" d="M184.78,33.48c2.76,0,4.63,2.19,4.63,5.4v0.57h-6.87c0.15,1.24,1.09,2.27,2.66,2.27
		c0.86,0,1.88-0.37,2.47-0.97l1.07,1.67c-0.92,0.89-2.37,1.36-3.81,1.36c-2.81,0-4.94-2.01-4.94-5.16
		C179.99,35.78,181.96,33.48,184.78,33.48z M182.5,37.71h4.55c-0.06-0.93-0.67-2.17-2.28-2.17
		C183.27,35.54,182.61,36.73,182.5,37.71z"/>
	<path class="st0" d="M197.33,36.86l-1.95,6.68h-2.6l-2.81-9.81h2.53l1.72,6.6l2.03-6.6h2.16l2.03,6.6l1.72-6.6h2.53l-2.81,9.81
		h-2.58L197.33,36.86z"/>
	<path class="st0" d="M205.09,38.62c0-2.78,1.84-5.14,4.88-5.14c3.06,0,4.9,2.36,4.9,5.14c0,2.8-1.84,5.16-4.9,5.16
		C206.93,43.78,205.09,41.43,205.09,38.62z M212.34,38.62c0-1.52-0.86-2.84-2.37-2.84s-2.35,1.32-2.35,2.84
		c0,1.54,0.84,2.86,2.35,2.86S212.34,40.17,212.34,38.62z"/>
	<path class="st0" d="M216.66,33.73h2.43v1.34c0.65-0.87,1.8-1.56,2.95-1.56v2.52c-0.17-0.04-0.4-0.08-0.67-0.08
		c-0.8,0-1.88,0.49-2.28,1.12v6.48h-2.43V33.73z"/>
	<path class="st0" d="M226.67,39.76l-1.11,1.26v2.52h-2.43V29.99h2.43v8.1l3.5-4.37h2.99l-3.66,4.45l3.77,5.36h-3.04L226.67,39.76z"
		/>
	<path class="st0" d="M233.48,40.45c0.67,0.67,2.05,1.34,3.2,1.34c1.05,0,1.55-0.39,1.55-1c0-0.69-0.8-0.93-1.86-1.16
		c-1.59-0.32-3.64-0.73-3.64-3.07c0-1.65,1.36-3.09,3.79-3.09c1.57,0,2.81,0.57,3.73,1.34l-0.98,1.77
		c-0.55-0.63-1.61-1.14-2.74-1.14c-0.88,0-1.45,0.35-1.45,0.91c0,0.61,0.73,0.83,1.76,1.06c1.59,0.33,3.71,0.77,3.71,3.21
		c0,1.79-1.44,3.15-4,3.15c-1.61,0-3.16-0.57-4.13-1.52L233.48,40.45z"/>
</g>
<g>
	<path class="st0" d="M24.6,30.19h5.94c2.32,0,3.74,1.4,3.74,3.4c0,1.68-1.12,2.8-2.34,3.06c1.42,0.22,2.6,1.68,2.6,3.28
		c0,2.14-1.42,3.6-3.86,3.6H24.6V30.19z M30.26,35.98c1.5,0,2.3-0.92,2.3-2.14c0-1.2-0.8-2.16-2.3-2.16h-4v4.3H30.26z M30.34,42.06
		c1.56,0,2.48-0.88,2.48-2.3c0-1.22-0.84-2.3-2.48-2.3h-4.08v4.6H30.34z"/>
	<path class="st0" d="M43.64,42.18c-0.74,0.84-2,1.6-3.44,1.6c-2.02,0-3.08-0.98-3.08-3.08v-6.82h1.5v6.36c0,1.7,0.86,2.2,2.16,2.2
		c1.18,0,2.3-0.68,2.86-1.46v-7.1h1.5v9.66h-1.5V42.18z"/>
	<path class="st0" d="M47.88,31.23c0-0.56,0.46-1,1-1c0.56,0,1.02,0.44,1.02,1s-0.46,1.02-1.02,1.02
		C48.34,32.25,47.88,31.79,47.88,31.23z M48.14,33.87h1.5v9.66h-1.5V33.87z"/>
	<path class="st0" d="M52.64,30.19h1.5v13.34h-1.5V30.19z"/>
	<path class="st0" d="M57.44,41.52V35.2h-1.6v-1.32h1.6v-2.64h1.5v2.64h1.96v1.32h-1.96v6c0,0.72,0.32,1.24,0.98,1.24
		c0.42,0,0.82-0.18,1.02-0.4l0.44,1.12c-0.38,0.36-0.92,0.62-1.8,0.62C58.16,43.78,57.44,42.96,57.44,41.52z"/>
	<path class="st0" d="M74.22,42.44c-0.8,0.88-1.9,1.34-3.2,1.34c-1.64,0-3.38-1.1-3.38-3.2c0-2.16,1.74-3.18,3.38-3.18
		c1.32,0,2.42,0.42,3.2,1.32v-1.74c0-1.3-1.04-2.04-2.44-2.04c-1.16,0-2.1,0.42-2.96,1.34l-0.7-1.04c1.04-1.08,2.28-1.6,3.86-1.6
		c2.04,0,3.74,0.92,3.74,3.26v6.64h-1.5V42.44z M74.22,39.68c-0.58-0.8-1.6-1.2-2.66-1.2c-1.4,0-2.38,0.88-2.38,2.12
		c0,1.22,0.98,2.1,2.38,2.1c1.06,0,2.08-0.4,2.66-1.2V39.68z"/>
	<path class="st0" d="M79.02,41.52V35.2h-1.6v-1.32h1.6v-2.64h1.5v2.64h1.96v1.32h-1.96v6c0,0.72,0.32,1.24,0.98,1.24
		c0.42,0,0.82-0.18,1.02-0.4l0.44,1.12c-0.38,0.36-0.92,0.62-1.8,0.62C79.74,43.78,79.02,42.96,79.02,41.52z"/>
</g>
<path class="st2" d="M114.02,54.71c-10.65,0.02-19.3-8.66-19.18-19.37c0.11-10.45,8.62-18.98,19.22-18.94
	c10.53,0.04,19.06,8.59,19.09,19.09C133.17,46.14,124.54,54.7,114.02,54.71z M113.94,38.32c0.12,0.01,0.15,0.08,0.18,0.14
	c0.52,1.29,1.03,2.57,1.56,3.86c0.19,0.47,0.34,0.98,0.92,1.14c0.3,0.08,0.61,0.06,0.92,0.05c0.47-0.02,0.82-0.25,1-0.69
	c0.23-0.57,0.46-1.14,0.69-1.7c0.5-1.21,1-2.41,1.49-3.62c0.45-1.09,0.88-2.19,1.32-3.28c0.54-1.34,1.09-2.67,1.64-4.01
	c0.08-0.2,0.07-0.3-0.18-0.3c-0.48,0.01-0.96,0.01-1.44,0c-0.17,0-0.26,0.07-0.33,0.23c-0.36,0.93-0.74,1.86-1.11,2.78
	c-0.46,1.14-0.95,2.26-1.41,3.4c-0.61,1.51-1.21,3.04-1.82,4.55c-0.03,0.08-0.06,0.2-0.16,0.21c-0.11,0.01-0.12-0.11-0.15-0.2
	c-0.61-1.49-1.24-2.98-1.83-4.48c-0.11-0.28-0.31-0.55-0.16-0.91c0.51-1.21,1.01-2.43,1.49-3.66c0.43-1.09,0.21-2.07-0.56-2.93
	c-0.83-0.92-2.29-1.16-3.43-0.46c-1.02,0.63-1.59,1.89-1.26,2.99c0.37,1.24,0.93,2.41,1.42,3.61c0.2,0.48,0.34,0.92,0.01,1.4
	c-0.15,0.22-0.22,0.5-0.32,0.75c-0.51,1.24-1.01,2.48-1.52,3.72c-0.02,0.06-0.01,0.15-0.11,0.15c-0.08,0-0.11-0.07-0.14-0.14
	c-0.16-0.4-0.33-0.8-0.49-1.2c-0.8-1.96-1.6-3.91-2.4-5.86c-0.5-1.23-1.01-2.46-1.5-3.69c-0.08-0.21-0.2-0.28-0.41-0.27
	c-0.46,0.01-0.91,0.01-1.37,0c-0.21,0-0.26,0.04-0.17,0.25c0.39,0.95,0.75,1.9,1.14,2.85c0.55,1.36,1.12,2.7,1.68,4.06
	c0.74,1.82,1.49,3.63,2.2,5.46c0.38,0.97,1.02,1.12,2.05,0.91c0.32-0.07,0.55-0.27,0.67-0.57c0.32-0.75,0.63-1.51,0.94-2.26
	C113.31,39.84,113.63,39.08,113.94,38.32z"/>
<path class="st3" d="M113.94,38.32c-0.31,0.75-0.62,1.52-0.94,2.28c-0.31,0.76-0.62,1.51-0.94,2.26c-0.13,0.3-0.35,0.51-0.67,0.57
	c-1.03,0.21-1.68,0.06-2.05-0.91c-0.71-1.83-1.46-3.64-2.2-5.46c-0.55-1.36-1.12-2.7-1.68-4.06c-0.39-0.95-0.75-1.9-1.14-2.85
	c-0.09-0.21-0.03-0.26,0.17-0.25c0.46,0.01,0.91,0.01,1.37,0c0.21,0,0.33,0.07,0.41,0.27c0.49,1.23,1,2.46,1.5,3.69
	c0.8,1.96,1.6,3.91,2.4,5.86c0.16,0.4,0.32,0.8,0.49,1.2c0.03,0.06,0.06,0.13,0.14,0.14c0.09,0,0.08-0.09,0.11-0.15
	c0.51-1.24,1.01-2.48,1.52-3.72c0.1-0.25,0.17-0.53,0.32-0.75c0.33-0.48,0.19-0.93-0.01-1.4c-0.49-1.2-1.05-2.37-1.42-3.61
	c-0.33-1.1,0.24-2.36,1.26-2.99c1.14-0.71,2.6-0.46,3.43,0.46c0.77,0.86,0.99,1.84,0.56,2.93c-0.48,1.22-0.98,2.44-1.49,3.66
	c-0.15,0.36,0.05,0.63,0.16,0.91c0.59,1.5,1.22,2.99,1.83,4.48c0.03,0.08,0.04,0.2,0.15,0.2c0.1-0.01,0.13-0.13,0.16-0.21
	c0.61-1.52,1.21-3.04,1.82-4.55c0.46-1.14,0.94-2.26,1.41-3.4c0.38-0.92,0.75-1.85,1.11-2.78c0.06-0.16,0.15-0.23,0.33-0.23
	c0.48,0.01,0.96,0.01,1.44,0c0.25,0,0.26,0.1,0.18,0.3c-0.55,1.33-1.1,2.67-1.64,4.01c-0.44,1.09-0.88,2.19-1.32,3.28
	c-0.49,1.21-1,2.41-1.49,3.62c-0.23,0.57-0.46,1.14-0.69,1.7c-0.18,0.44-0.53,0.67-1,0.69c-0.31,0.01-0.61,0.04-0.92-0.05
	c-0.58-0.16-0.73-0.67-0.92-1.14c-0.52-1.28-1.04-2.57-1.56-3.86C114.09,38.4,114.06,38.34,113.94,38.32z M113.98,29.92
	c-0.58,0-1.06,0.57-0.92,1.09c0.2,0.73,0.55,1.41,0.82,2.12c0.02,0.05,0.04,0.13,0.1,0.11c0.05-0.01,0.09-0.07,0.11-0.12
	c0.27-0.67,0.55-1.34,0.78-2.03C115.09,30.5,114.61,29.92,113.98,29.92z"/>
<path class="st2" d="M113.98,29.92c0.63,0,1.1,0.58,0.9,1.18c-0.23,0.69-0.52,1.35-0.78,2.03c-0.02,0.05-0.07,0.11-0.11,0.12
	c-0.07,0.02-0.08-0.06-0.1-0.11c-0.27-0.71-0.62-1.39-0.82-2.12C112.92,30.49,113.41,29.92,113.98,29.92z"/>
<g>
	<path class="st2" d="M143.75,36.49c0-4.16,2.97-7.01,6.7-7.01c2.91,0,4.53,1.62,5.43,3.31l-2.33,1.22c-0.54-1.1-1.68-1.97-3.1-1.97
		c-2.22,0-3.9,1.89-3.9,4.45s1.68,4.45,3.9,4.45c1.42,0,2.56-0.85,3.1-1.97l2.33,1.2c-0.92,1.69-2.53,3.33-5.43,3.33
		C146.72,43.5,143.75,40.65,143.75,36.49z"/>
	<path class="st2" d="M157.2,38.34c0-2.78,1.84-5.14,4.88-5.14c3.06,0,4.9,2.36,4.9,5.14c0,2.8-1.84,5.16-4.9,5.16
		C159.04,43.5,157.2,41.14,157.2,38.34z M164.45,38.34c0-1.52-0.86-2.84-2.37-2.84s-2.35,1.32-2.35,2.84c0,1.54,0.84,2.86,2.35,2.86
		S164.45,39.88,164.45,38.34z"/>
	<path class="st2" d="M175.43,41.99c-0.73,0.98-1.74,1.5-2.85,1.5c-2.33,0-4.09-1.87-4.09-5.14c0-3.21,1.74-5.16,4.09-5.16
		c1.09,0,2.12,0.51,2.85,1.5v-5h2.45v13.55h-2.45V41.99z M175.43,36.61c-0.4-0.65-1.28-1.12-2.11-1.12c-1.38,0-2.33,1.16-2.33,2.86
		c0,1.69,0.96,2.84,2.33,2.84c0.82,0,1.7-0.47,2.11-1.12V36.61z"/>
	<path class="st2" d="M184.5,33.2c2.76,0,4.63,2.19,4.63,5.4v0.57h-6.87c0.15,1.24,1.09,2.27,2.66,2.27c0.86,0,1.88-0.37,2.47-0.97
		l1.07,1.67c-0.92,0.89-2.37,1.36-3.81,1.36c-2.81,0-4.94-2.01-4.94-5.16C179.72,35.49,181.69,33.2,184.5,33.2z M182.22,37.42h4.55
		c-0.06-0.93-0.67-2.17-2.28-2.17C182.99,35.25,182.34,36.45,182.22,37.42z"/>
	<path class="st2" d="M197.05,36.57l-1.95,6.68h-2.6l-2.81-9.81h2.53l1.72,6.6l2.03-6.6h2.16l2.03,6.6l1.72-6.6h2.53l-2.81,9.81H199
		L197.05,36.57z"/>
	<path class="st2" d="M204.81,38.34c0-2.78,1.84-5.14,4.88-5.14c3.06,0,4.9,2.36,4.9,5.14c0,2.8-1.84,5.16-4.9,5.16
		C206.65,43.5,204.81,41.14,204.81,38.34z M212.07,38.34c0-1.52-0.86-2.84-2.37-2.84s-2.35,1.32-2.35,2.84
		c0,1.54,0.84,2.86,2.35,2.86S212.07,39.88,212.07,38.34z"/>
	<path class="st2" d="M216.39,33.44h2.43v1.34c0.65-0.87,1.8-1.56,2.95-1.56v2.52c-0.17-0.04-0.4-0.08-0.67-0.08
		c-0.8,0-1.88,0.49-2.28,1.12v6.48h-2.43V33.44z"/>
	<path class="st2" d="M226.39,39.47l-1.11,1.26v2.52h-2.43V29.71h2.43v8.1l3.5-4.37h2.99l-3.66,4.45l3.77,5.36h-3.04L226.39,39.47z"
		/>
	<path class="st2" d="M233.2,40.17c0.67,0.67,2.05,1.34,3.2,1.34c1.05,0,1.55-0.39,1.55-1c0-0.69-0.8-0.93-1.86-1.16
		c-1.59-0.32-3.64-0.73-3.64-3.07c0-1.65,1.36-3.09,3.79-3.09c1.57,0,2.81,0.57,3.73,1.34L239,36.31c-0.55-0.63-1.61-1.14-2.74-1.14
		c-0.88,0-1.45,0.35-1.45,0.91c0,0.61,0.73,0.83,1.76,1.06c1.59,0.33,3.71,0.77,3.71,3.21c0,1.79-1.44,3.15-4,3.15
		c-1.61,0-3.16-0.57-4.13-1.52L233.2,40.17z"/>
</g>
<g>
	<path class="st2" d="M24.33,29.91h5.94c2.32,0,3.74,1.4,3.74,3.4c0,1.68-1.12,2.8-2.34,3.06c1.42,0.22,2.6,1.68,2.6,3.28
		c0,2.14-1.42,3.6-3.86,3.6h-6.08V29.91z M29.99,35.69c1.5,0,2.3-0.92,2.3-2.14c0-1.2-0.8-2.16-2.3-2.16h-4v4.3H29.99z M30.07,41.77
		c1.56,0,2.48-0.88,2.48-2.3c0-1.22-0.84-2.3-2.48-2.3h-4.08v4.6H30.07z"/>
	<path class="st2" d="M43.37,41.89c-0.74,0.84-2,1.6-3.44,1.6c-2.02,0-3.08-0.98-3.08-3.08v-6.82h1.5v6.36c0,1.7,0.86,2.2,2.16,2.2
		c1.18,0,2.3-0.68,2.86-1.46v-7.1h1.5v9.66h-1.5V41.89z"/>
	<path class="st2" d="M47.61,30.95c0-0.56,0.46-1,1-1c0.56,0,1.02,0.44,1.02,1s-0.46,1.02-1.02,1.02
		C48.07,31.97,47.61,31.51,47.61,30.95z M47.87,33.59h1.5v9.66h-1.5V33.59z"/>
	<path class="st2" d="M52.37,29.91h1.5v13.34h-1.5V29.91z"/>
	<path class="st2" d="M57.17,41.23v-6.32h-1.6v-1.32h1.6v-2.64h1.5v2.64h1.96v1.32h-1.96v6c0,0.72,0.32,1.24,0.98,1.24
		c0.42,0,0.82-0.18,1.02-0.4l0.44,1.12c-0.38,0.36-0.92,0.62-1.8,0.62C57.89,43.49,57.17,42.67,57.17,41.23z"/>
	<path class="st2" d="M73.95,42.15c-0.8,0.88-1.9,1.34-3.2,1.34c-1.64,0-3.38-1.1-3.38-3.2c0-2.16,1.74-3.18,3.38-3.18
		c1.32,0,2.42,0.42,3.2,1.32v-1.74c0-1.3-1.04-2.04-2.44-2.04c-1.16,0-2.1,0.42-2.96,1.34l-0.7-1.04c1.04-1.08,2.28-1.6,3.86-1.6
		c2.04,0,3.74,0.92,3.74,3.26v6.64h-1.5V42.15z M73.95,39.39c-0.58-0.8-1.6-1.2-2.66-1.2c-1.4,0-2.38,0.88-2.38,2.12
		c0,1.22,0.98,2.1,2.38,2.1c1.06,0,2.08-0.4,2.66-1.2V39.39z"/>
	<path class="st2" d="M78.75,41.23v-6.32h-1.6v-1.32h1.6v-2.64h1.5v2.64h1.96v1.32h-1.96v6c0,0.72,0.32,1.24,0.98,1.24
		c0.42,0,0.82-0.18,1.02-0.4l0.44,1.12c-0.38,0.36-0.92,0.62-1.8,0.62C79.47,43.49,78.75,42.67,78.75,41.23z"/>
</g>
</svg>
